<?xml version="1.0" encoding="UTF-8" standalone="no"?>
<svg width="96" height="96" version="1.1" viewBox="0 0 96 96" xmlns="http://www.w3.org/2000/svg" xmlns:svg="http://www.w3.org/2000/svg">
  <path
     d="M 48.3,42.63 22.4,10 H 12.01 V 64 H 22.4 V 30.63 c 0,-0.8588 -0.02296,-1.748 -0.07653,-2.655 -0.05358,-0.9075 -0.1301,-1.95 -0.2335,-3.064 0.3774,0.9059 0.8226,1.783 1.332,2.625 0.5958,0.9937 1.246,1.955 1.948,2.88 l 20.7,27.05 h 2.553 l 20.67,-26.95 c 0.4133,-0.5775 0.8879,-1.316 1.408,-2.212 0.5205,-0.8962 1.125,-2.051 1.818,-3.45 -0.1416,1.223 -0.2526,2.336 -0.3368,3.323 -0.0842,0.9862 -0.134,1.796 -0.134,2.452 v 33.37 h 11.96 v -54 h -10.3 z"
     fill="#000000"
     id="path8" />
  <rect
     x="12"
     y="72"
     width="72"
     height="12"
     fill="#000000"
     id="rect10" />
</svg>
